<svg width="16" height="16" viewBox="0 0 16 16" fill="none" xmlns="http://www.w3.org/2000/svg">
<path d="M6.22847 12.5213L4.94057 12.1762L5.46555 10.217C4.67281 9.92502 3.94443 9.49995 3.30746 8.96902L1.87191 10.4045L0.929101 9.46175L2.36465 8.02622C1.57056 7.07362 1.01345 5.91652 0.783875 4.64554L2.09593 4.40698C2.60195 7.20848 5.05289 9.33348 8.00015 9.33348C10.9474 9.33348 13.3984 7.20848 13.9044 4.40698L15.2165 4.64554C14.9869 5.91652 14.4298 7.07362 13.6357 8.02622L15.0712 9.46175L14.1284 10.4045L12.6929 8.96902C12.0559 9.49995 11.3275 9.92502 10.5348 10.217L11.0598 12.1762L9.77189 12.5213L9.24669 10.5613C8.84155 10.6307 8.42509 10.6668 8.00015 10.6668C7.57529 10.6668 7.15875 10.6307 6.75369 10.5613L6.22847 12.5213Z" fill="white" fill-opacity="0.8"/>
</svg>
