<svg width="16" height="16" viewBox="0 0 16 16" fill="none" xmlns="http://www.w3.org/2000/svg">
<path d="M8.0002 2C11.5949 2 14.5856 4.58651 15.2126 8C14.5856 11.4135 11.5949 14 8.0002 14C4.40542 14 1.41477 11.4135 0.787762 8C1.41477 4.58651 4.40542 2 8.0002 2ZM8.0002 12.6667C10.8239 12.6667 13.2402 10.7013 13.8518 8C13.2402 5.29869 10.8239 3.33333 8.0002 3.33333C5.1764 3.33333 2.76015 5.29869 2.14852 8C2.76015 10.7013 5.1764 12.6667 8.0002 12.6667ZM8.0002 11C6.34332 11 5.00017 9.65687 5.00017 8C5.00017 6.34315 6.34332 5 8.0002 5C9.657 5 11.0002 6.34315 11.0002 8C11.0002 9.65687 9.657 11 8.0002 11ZM8.0002 9.66667C8.92067 9.66667 9.66687 8.92047 9.66687 8C9.66687 7.07953 8.92067 6.33333 8.0002 6.33333C7.07974 6.33333 6.33351 7.07953 6.33351 8C6.33351 8.92047 7.07974 9.66667 8.0002 9.66667Z" fill="white" fill-opacity="0.8"/>
</svg>
