<svg width="16" height="16" viewBox="0 0 16 16" fill="none" xmlns="http://www.w3.org/2000/svg">
<path d="M3.64172 2.955C4.81038 1.94451 6.33381 1.33325 8.00001 1.33325C11.6819 1.33325 14.6667 4.31802 14.6667 7.99992C14.6667 9.42398 14.2201 10.7438 13.4595 11.827L11.3333 7.99992H13.3333C13.3333 5.0544 10.9455 2.66659 8.00001 2.66659C6.56656 2.66659 5.26519 3.2321 4.30683 4.1522L3.64172 2.955ZM12.3583 13.0449C11.1896 14.0553 9.66621 14.6666 8.00001 14.6666C4.31811 14.6666 1.33334 11.6818 1.33334 7.99992C1.33334 6.57582 1.77987 5.25603 2.54054 4.17288L4.66668 7.99992H2.66668C2.66668 10.9455 5.05449 13.3333 8.00001 13.3333C9.43348 13.3333 10.7348 12.7677 11.6932 11.8477L12.3583 13.0449Z" fill="white" fill-opacity="0.8"/>
</svg>
